<svg width="12" height="16" viewBox="0 0 12 16" fill="none" xmlns="http://www.w3.org/2000/svg">
<path d="M8 2.5H2C1.17157 2.5 0.5 3.17157 0.5 4V14C0.5 14.8284 1.17157 15.5 2 15.5H8C8.82843 15.5 9.5 14.8284 9.5 14V4C9.5 3.17157 8.82843 2.5 8 2.5Z" stroke="black"/>
<path d="M2.5 2C2.5 1.60218 2.65804 1.22064 2.93934 0.93934C3.22064 0.658035 3.60218 0.5 4 0.5H10C10.3978 0.5 10.7794 0.658035 11.0607 0.93934C11.342 1.22064 11.5 1.60218 11.5 2V12C11.5 12.3978 11.342 12.7794 11.0607 13.0607C10.7794 13.342 10.3978 13.5 10 13.5" stroke="black"/>
</svg>
